<svg version="1.2" xmlns="http://www.w3.org/2000/svg" viewBox="0 0 292 150" width="292" height="150">
	<style>
		.s0 { fill: #000000 } 
	</style>
	<path id="Path 0" fill-rule="evenodd" class="s0" d="m170.25 0.05c0.41-0.03 1.88 0.62 3.25 1.45 1.9 1.14 2.5 2.33 2.5 5 0 1.93-1.24 5.79-5.5 13.7l4 3.14c2.2 1.73 6.05 5.17 8.56 7.65 3.12 3.09 5.14 6.25 6.39 10.01 1.38 4.16 1.71 7.45 1.36 13.5-0.35 5.91-1.13 9.31-3 13-1.41 2.78-5.14 7.34-8.42 10.28-3.28 2.95-7.66 5.82-9.89 6.49-2.2 0.66-7.15 1.16-11 1.1-5.04-0.07-8.82-0.84-13.5-2.72-3.57-1.44-7.06-2.63-7.75-2.64-0.69 0-3.51 2.8-6.28 6.24-2.77 3.44-6.19 8.5-7.61 11.25-1.43 2.8-2.3 5.77-1.96 6.75 0.46 1.35 1.34 1.63 3.85 1.2 1.79-0.3 6.63-2.03 10.75-3.85 4.13-1.83 12.11-4.51 17.75-5.96 7.66-1.97 12.71-2.64 20-2.64 8.67 0 10.41 0.32 15.75 2.87 3.3 1.58 6.98 3.94 8.18 5.25 1.2 1.31 2.67 3.62 3.25 5.13 0.59 1.51 1.07 4.55 1.07 6.75 0 2.2-0.61 5.46-1.35 7.25-0.74 1.79-3.21 4.94-5.5 7-2.28 2.06-6.06 4.62-8.4 5.68-2.34 1.07-6.72 2.69-9.75 3.62-3.03 0.92-8.65 1.99-12.5 2.38-3.85 0.38 16.85 0.7 46 0.7 29.15 0 57.16 0.31 62.25 0.68 8.35 0.62 9.25 0.88 9.25 2.69 0 1.38-1.01 2.31-3.25 3.02-1.79 0.56-10.23 0.98-18.75 0.94-8.53-0.04-17.75-0.54-20.5-1.11-2.75-0.56-11.53-1.26-19.5-1.54-10.36-0.37-18.49-0.03-28.5 1.19-11.44 1.39-19.49 1.61-44 1.19-23.67-0.4-31.16-0.85-35.5-2.14-3.03-0.89-7.08-2.49-9-3.55-3.07-1.68-7.29-2.07-34.5-3.17-17.05-0.69-36.63-1.27-43.5-1.29-6.87-0.02-13.17-0.43-14-0.9-0.96-0.54-1.14-1.15-0.5-1.67 0.55-0.45 19.9-0.94 85-1.35l4.5-3.85c2.68-2.29 6.62-4.44 9.75-5.31 2.89-0.8 7.16-1.45 9.5-1.44 2.34 0.01 7.85 0.67 12.25 1.46 4.4 0.8 14.3 1.47 22 1.51 13.58 0.05 14.19-0.04 20.25-2.97 4.3-2.08 6.72-3.96 7.75-6.02 0.82-1.65 1.51-3.34 1.52-3.75 0.01-0.41-0.56-1.56-1.25-2.54-0.7-0.99-3.07-2.19-5.27-2.67-2.37-0.52-6.65-0.49-10.5 0.07-3.57 0.52-9.2 2.03-12.5 3.34-3.3 1.32-9.82 3.33-14.5 4.49-4.68 1.15-9.4 2.08-10.5 2.08-1.1-0.01-4.25-0.82-7-1.8-2.75-0.98-6.44-2.89-8.19-4.25-3-2.32-3.2-2.88-3.27-8.97-0.06-5.58 0.36-7.17 2.95-11.25 1.65-2.61 5.48-7.67 8.51-11.25 4.83-5.7 5.35-6.73 4.25-8.38-0.69-1.04-2.65-3.85-4.36-6.25-1.7-2.4-3.7-6.17-4.43-8.37-0.73-2.2-1.33-6.92-1.33-10.5-0.01-4.92 0.62-7.84 2.58-12 1.54-3.26 4.57-7.25 7.44-9.8 2.67-2.37 7.32-5.22 10.35-6.34 3.03-1.13 7.75-2.09 10.5-2.14 2.75-0.05 6.01 0.22 7.25 0.6 1.94 0.59 2.51 0.09 4.1-3.57 1.02-2.34 3.6-5.73 5.75-7.53 2.14-1.8 4.35-3.69 4.9-4.2 0.55-0.51 1.34-0.94 1.75-0.97zm-7.75 13.95c-0.28 1.1-0.28 2.45 0 3 0.28 0.55 1.13 0.74 1.9 0.43 0.77-0.32 2.68-2.36 4.25-4.54 1.97-2.74 2.53-4.27 1.8-4.98-0.72-0.7-2.05-0.22-4.25 1.53-1.76 1.41-3.42 3.46-3.7 4.56zm-24 15.7c-1.1 0.57-3.7 3-5.77 5.42-3.29 3.82-3.77 5.02-3.75 9.38 0.02 2.98 1.03 7.43 2.5 11 1.36 3.3 2.48 7.46 2.5 9.25 0.01 1.79 0.81 4 1.77 4.91 0.96 0.92 3.32 2.32 5.25 3.12 2.12 0.87 6.85 1.45 12 1.44 6.44 0 9.47-0.48 12.5-1.97 2.2-1.08 5.7-3.95 7.77-6.36 2.13-2.47 4.04-5.92 4.37-7.89 0.33-1.92 0.3-5.3-0.07-7.5-0.37-2.2-2.33-6.31-4.37-9.13-2.03-2.83-5.84-7.44-8.45-10.25-4.59-4.95-4.93-5.12-10-5.03-2.89 0.05-7.28 0.65-9.75 1.33-2.47 0.68-5.4 1.71-6.5 2.28zm35.42 4.3c2.1 2.48 4.78 6.3 5.96 8.5 1.66 3.13 2.13 5.74 2.12 12-0.01 5.95-0.47 8.77-1.82 11-1 1.65-3.58 4.7-5.75 6.78-2.16 2.08-4.27 3.77-4.68 3.75-0.41-0.02-0.75 0.42-0.75 0.97 0 0.66 0.94 0.67 2.75 0.04 1.51-0.53 4.66-3.01 7-5.5 2.34-2.5 4.89-6 5.67-7.79 0.78-1.79 1.73-5.5 2.1-8.25 0.38-2.75 0.21-6.8-0.36-9-0.58-2.2-2.54-6.24-4.35-8.97-1.82-2.74-4.88-6.01-6.81-7.28-1.93-1.27-3.84-2.29-4.25-2.28-0.41 0.02-0.73 0.37-0.71 0.78 0.03 0.41 1.77 2.78 3.88 5.25zm-53.44 7.5c-1.16 3.92-1.23 5.86-0.37 9 0.61 2.2 1.9 5.58 2.87 7.5 0.98 1.93 2.52 4.18 3.44 5 1.5 1.35 1.67 1.3 1.65-0.5-0.01-1.1-0.98-4.25-2.15-7-1.41-3.31-2.12-7.03-2.09-11 0.02-3.3 0.51-7.12 1.09-8.5 0.58-1.37 1.75-3.51 2.6-4.75 0.84-1.24 1.32-2.25 1.07-2.25-0.25 0-1.85 1.69-3.55 3.75-1.7 2.06-3.76 6-4.56 8.75zm-1.68 49.7c0.11 0.44 0.87 0.13 1.7-0.7 0.82-0.83 1.35-1.72 1.17-1.98-0.19-0.27-0.95 0.05-1.7 0.7-0.76 0.65-1.28 1.54-1.17 1.98zm18.41 15.35c-3.45 1.62-6.27 3.29-6.25 3.7 0.02 0.41 1.5 0.74 3.29 0.72 1.79-0.02 5.72-0.96 8.75-2.08 3.02-1.13 9.77-3.36 15-4.96 5.28-1.61 11.83-2.91 14.75-2.92 2.89 0 6.49 0.62 8 1.39 1.51 0.78 3.87 2.61 5.25 4.09 1.61 1.72 2.48 3.8 2.46 5.84-0.03 1.74-1.15 4.66-2.5 6.47-1.35 1.82-4.03 4.41-5.96 5.77-1.93 1.35-5.3 2.93-7.5 3.51-2.2 0.58-5.8 1.45-8 1.94-2.2 0.49-6.81 0.91-10.25 0.94-3.44 0.02-9.29-0.59-13-1.36-3.71-0.77-10.35-1.72-14.75-2.11-4.7-0.41-10.27-0.25-13.5 0.38-3.03 0.58-6.06 1.75-6.75 2.6-1 1.22-1 1.66 0 2.17 0.69 0.35 8.67 1.1 17.75 1.66 12.24 0.76 19.85 0.71 29.5-0.2 7.15-0.67 15.93-1.66 19.5-2.2 3.57-0.53 8.9-2.19 11.84-3.69 2.93-1.49 6.53-3.98 8-5.53 2.24-2.38 2.71-3.88 2.97-9.5 0.25-5.37-0.05-7.05-1.5-8.57-1-1.04-3.61-2.72-5.81-3.73-3.24-1.49-6.46-1.83-17-1.8-10.52 0.02-14.43 0.46-20.5 2.28-4.13 1.23-10.33 3.57-13.79 5.19z"/>
</svg>